<mxfile host="app.diagrams.net" modified="2024-03-24T16:16:59.247Z" agent="Mozilla/5.0 (Windows NT 10.0; Win64; x64) AppleWebKit/537.36 (KHTML, like Gecko) Chrome/122.0.0.0 Safari/537.36 Edg/122.0.0.0" etag="Hg-U0YoWSht_9pdeaQy0" version="24.0.7" type="github">
  <diagram name="第 1 页" id="LeM2w8VIvvIg2yJOV-8C">
    <mxGraphModel dx="2490" dy="1259" grid="1" gridSize="10" guides="1" tooltips="1" connect="1" arrows="1" fold="1" page="1" pageScale="1" pageWidth="1169" pageHeight="1654" background="none" math="0" shadow="0">
      <root>
        <mxCell id="0" />
        <mxCell id="1" parent="0" />
        <mxCell id="9sdCq0_GtWGFNs0LASUp-22" value="" style="ellipse;whiteSpace=wrap;html=1;rotation=90;fillColor=#FFD966;strokeColor=#FFB366;opacity=60;strokeWidth=2;" parent="1" vertex="1">
          <mxGeometry x="1531.08" y="1337.56" width="221.92" height="222.78" as="geometry" />
        </mxCell>
        <mxCell id="WjKeYcZH_bO4U1SeLpZb-8" value="" style="ellipse;whiteSpace=wrap;html=1;rotation=40;fillColor=#9497C5;strokeColor=#A680B8;opacity=60;strokeWidth=2;" parent="1" vertex="1">
          <mxGeometry x="211.27" y="464.67" width="329.39" height="199.57" as="geometry" />
        </mxCell>
        <mxCell id="WjKeYcZH_bO4U1SeLpZb-7" value="" style="ellipse;whiteSpace=wrap;html=1;rotation=-230;fillColor=#FFD966;strokeColor=#FFB366;opacity=60;strokeWidth=2;" parent="1" vertex="1">
          <mxGeometry x="270" y="468.15999999999997" width="324.02" height="192.09" as="geometry" />
        </mxCell>
        <mxCell id="WjKeYcZH_bO4U1SeLpZb-1" value="" style="ellipse;whiteSpace=wrap;html=1;rotation=-225;opacity=60;fillColor=#CC6E0E;strokeColor=#CC6E0E;strokeWidth=2;" parent="1" vertex="1">
          <mxGeometry x="348.17" y="521.1" width="312.51" height="188.36" as="geometry" />
        </mxCell>
        <mxCell id="WjKeYcZH_bO4U1SeLpZb-18" value="&lt;font style=&quot;font-size: 16px;&quot; face=&quot;Times New Roman&quot;&gt;&lt;b&gt;DVCL&lt;/b&gt;&lt;/font&gt;" style="text;html=1;align=center;verticalAlign=middle;resizable=0;points=[];autosize=1;strokeColor=none;fillColor=none;" parent="1" vertex="1">
          <mxGeometry x="1230" y="620" width="70" height="30" as="geometry" />
        </mxCell>
        <mxCell id="WjKeYcZH_bO4U1SeLpZb-20" value="&lt;br&gt;" style="text;html=1;align=center;verticalAlign=middle;resizable=0;points=[];autosize=1;strokeColor=none;fillColor=none;" parent="1" vertex="1">
          <mxGeometry x="870" y="558" width="20" height="30" as="geometry" />
        </mxCell>
        <mxCell id="WjKeYcZH_bO4U1SeLpZb-21" value="" style="ellipse;whiteSpace=wrap;html=1;rotation=40;fillColor=#9497C5;strokeColor=#A680B8;opacity=70;strokeWidth=3;" parent="1" vertex="1">
          <mxGeometry x="744.4200000000001" y="423.59000000000003" width="311.16" height="196.41" as="geometry" />
        </mxCell>
        <mxCell id="WjKeYcZH_bO4U1SeLpZb-22" value="" style="ellipse;whiteSpace=wrap;html=1;rotation=-230;fillColor=#FFD966;strokeColor=#FFB366;opacity=70;strokeWidth=3;" parent="1" vertex="1">
          <mxGeometry x="988.95" y="472.46" width="310" height="193.9" as="geometry" />
        </mxCell>
        <mxCell id="WjKeYcZH_bO4U1SeLpZb-23" value="" style="rounded=0;whiteSpace=wrap;html=1;fillColor=#d5e8d4;strokeColor=#336600;opacity=80;strokeWidth=2;" parent="1" vertex="1">
          <mxGeometry x="880" y="375" width="40" height="20" as="geometry" />
        </mxCell>
        <mxCell id="WjKeYcZH_bO4U1SeLpZb-24" value="&lt;font style=&quot;font-size: 16px;&quot; face=&quot;Times New Roman&quot;&gt;&lt;b&gt;DVCL&lt;/b&gt;&lt;/font&gt;" style="text;html=1;align=center;verticalAlign=middle;resizable=0;points=[];autosize=1;strokeColor=none;fillColor=none;" parent="1" vertex="1">
          <mxGeometry x="920" y="370" width="70" height="30" as="geometry" />
        </mxCell>
        <mxCell id="WjKeYcZH_bO4U1SeLpZb-25" value="" style="rounded=0;whiteSpace=wrap;html=1;fillColor=#dae8fc;strokeColor=#0066CC;opacity=80;strokeWidth=2;" parent="1" vertex="1">
          <mxGeometry x="1000" y="375" width="40" height="20" as="geometry" />
        </mxCell>
        <mxCell id="WjKeYcZH_bO4U1SeLpZb-26" value="&lt;font face=&quot;Times New Roman&quot;&gt;&lt;span style=&quot;font-size: 16px;&quot;&gt;&lt;b&gt;w/o DV&lt;/b&gt;&lt;/span&gt;&lt;/font&gt;" style="text;html=1;align=center;verticalAlign=middle;resizable=0;points=[];autosize=1;strokeColor=none;fillColor=none;" parent="1" vertex="1">
          <mxGeometry x="1040" y="370" width="70" height="30" as="geometry" />
        </mxCell>
        <mxCell id="WjKeYcZH_bO4U1SeLpZb-27" value="" style="rounded=0;whiteSpace=wrap;html=1;fillColor=#fff2cc;strokeColor=#CC6600;opacity=70;strokeWidth=2;" parent="1" vertex="1">
          <mxGeometry x="1130" y="375" width="40" height="20" as="geometry" />
        </mxCell>
        <mxCell id="WjKeYcZH_bO4U1SeLpZb-28" value="&lt;font face=&quot;Times New Roman&quot;&gt;&lt;span style=&quot;font-size: 16px;&quot;&gt;&lt;b&gt;w/o DT&lt;/b&gt;&lt;/span&gt;&lt;/font&gt;" style="text;html=1;align=center;verticalAlign=middle;resizable=0;points=[];autosize=1;strokeColor=none;fillColor=none;" parent="1" vertex="1">
          <mxGeometry x="1168" y="370" width="70" height="30" as="geometry" />
        </mxCell>
        <mxCell id="WjKeYcZH_bO4U1SeLpZb-29" value="" style="rounded=0;whiteSpace=wrap;html=1;fillColor=#f8cecc;strokeColor=#b85450;opacity=50;strokeWidth=2;" parent="1" vertex="1">
          <mxGeometry x="1248.8400000000001" y="375" width="40" height="20" as="geometry" />
        </mxCell>
        <mxCell id="WjKeYcZH_bO4U1SeLpZb-30" value="&lt;font face=&quot;Times New Roman&quot;&gt;&lt;span style=&quot;font-size: 16px;&quot;&gt;&lt;b&gt;w/o DCL&lt;/b&gt;&lt;/span&gt;&lt;/font&gt;" style="text;html=1;align=center;verticalAlign=middle;resizable=0;points=[];autosize=1;strokeColor=none;fillColor=none;" parent="1" vertex="1">
          <mxGeometry x="1282.51" y="370" width="90" height="30" as="geometry" />
        </mxCell>
        <mxCell id="WjKeYcZH_bO4U1SeLpZb-31" value="" style="ellipse;whiteSpace=wrap;html=1;rotation=40;fillColor=#EEE5AD;strokeColor=#FFD966;opacity=70;strokeWidth=3;" parent="1" vertex="1">
          <mxGeometry x="369.35" y="1088.16" width="311.16" height="196.41" as="geometry" />
        </mxCell>
        <mxCell id="WjKeYcZH_bO4U1SeLpZb-32" value="" style="ellipse;whiteSpace=wrap;html=1;rotation=-230;fillColor=#EABF6F;strokeColor=#FFB366;opacity=70;strokeWidth=3;" parent="1" vertex="1">
          <mxGeometry x="411.95" y="1092.46" width="310" height="193.9" as="geometry" />
        </mxCell>
        <mxCell id="WjKeYcZH_bO4U1SeLpZb-33" value="" style="ellipse;whiteSpace=wrap;html=1;rotation=-225;opacity=70;fillColor=#929455;strokeColor=#CC6E0E;strokeWidth=3;" parent="1" vertex="1">
          <mxGeometry x="485.5" y="1143.96" width="297.38" height="188.36" as="geometry" />
        </mxCell>
        <mxCell id="WjKeYcZH_bO4U1SeLpZb-34" value="" style="rounded=0;whiteSpace=wrap;html=1;fillColor=#d5e8d4;strokeColor=#336600;opacity=80;strokeWidth=2;" parent="1" vertex="1">
          <mxGeometry x="303" y="995" width="40" height="20" as="geometry" />
        </mxCell>
        <mxCell id="WjKeYcZH_bO4U1SeLpZb-35" value="&lt;font style=&quot;font-size: 16px;&quot; face=&quot;Times New Roman&quot;&gt;&lt;b&gt;DVCL&lt;/b&gt;&lt;/font&gt;" style="text;html=1;align=center;verticalAlign=middle;resizable=0;points=[];autosize=1;strokeColor=none;fillColor=none;" parent="1" vertex="1">
          <mxGeometry x="343" y="990" width="70" height="30" as="geometry" />
        </mxCell>
        <mxCell id="WjKeYcZH_bO4U1SeLpZb-36" value="" style="rounded=0;whiteSpace=wrap;html=1;fillColor=#dae8fc;strokeColor=#0066CC;opacity=80;strokeWidth=2;" parent="1" vertex="1">
          <mxGeometry x="423" y="995" width="40" height="20" as="geometry" />
        </mxCell>
        <mxCell id="WjKeYcZH_bO4U1SeLpZb-37" value="&lt;font face=&quot;Times New Roman&quot;&gt;&lt;span style=&quot;font-size: 16px;&quot;&gt;&lt;b&gt;w/o DV&lt;/b&gt;&lt;/span&gt;&lt;/font&gt;" style="text;html=1;align=center;verticalAlign=middle;resizable=0;points=[];autosize=1;strokeColor=none;fillColor=none;" parent="1" vertex="1">
          <mxGeometry x="463" y="990" width="70" height="30" as="geometry" />
        </mxCell>
        <mxCell id="WjKeYcZH_bO4U1SeLpZb-38" value="" style="rounded=0;whiteSpace=wrap;html=1;fillColor=#fff2cc;strokeColor=#CC6600;opacity=70;strokeWidth=2;" parent="1" vertex="1">
          <mxGeometry x="553" y="995" width="40" height="20" as="geometry" />
        </mxCell>
        <mxCell id="WjKeYcZH_bO4U1SeLpZb-39" value="&lt;font face=&quot;Times New Roman&quot;&gt;&lt;span style=&quot;font-size: 16px;&quot;&gt;&lt;b&gt;w/o DT&lt;/b&gt;&lt;/span&gt;&lt;/font&gt;" style="text;html=1;align=center;verticalAlign=middle;resizable=0;points=[];autosize=1;strokeColor=none;fillColor=none;" parent="1" vertex="1">
          <mxGeometry x="591" y="990" width="70" height="30" as="geometry" />
        </mxCell>
        <mxCell id="WjKeYcZH_bO4U1SeLpZb-40" value="" style="rounded=0;whiteSpace=wrap;html=1;fillColor=#f8cecc;strokeColor=#b85450;opacity=50;strokeWidth=2;" parent="1" vertex="1">
          <mxGeometry x="671.84" y="995" width="40" height="20" as="geometry" />
        </mxCell>
        <mxCell id="WjKeYcZH_bO4U1SeLpZb-41" value="&lt;font face=&quot;Times New Roman&quot;&gt;&lt;span style=&quot;font-size: 16px;&quot;&gt;&lt;b&gt;w/o DCL&lt;/b&gt;&lt;/span&gt;&lt;/font&gt;" style="text;html=1;align=center;verticalAlign=middle;resizable=0;points=[];autosize=1;strokeColor=none;fillColor=none;" parent="1" vertex="1">
          <mxGeometry x="705.51" y="990" width="90" height="30" as="geometry" />
        </mxCell>
        <mxCell id="WjKeYcZH_bO4U1SeLpZb-42" value="" style="ellipse;whiteSpace=wrap;html=1;rotation=35;fillColor=#3FB4CF;strokeColor=#82b366;opacity=70;strokeWidth=3;" parent="1" vertex="1">
          <mxGeometry x="312.74" y="1154.92" width="310.12" height="180.9" as="geometry" />
        </mxCell>
        <mxCell id="WjKeYcZH_bO4U1SeLpZb-5" value="" style="ellipse;whiteSpace=wrap;html=1;rotation=35;fillColor=#95A54A;strokeColor=#82B366;opacity=60;strokeWidth=2;" parent="1" vertex="1">
          <mxGeometry x="171.6" y="527.3" width="327.09" height="191.04" as="geometry" />
        </mxCell>
        <mxCell id="WjKeYcZH_bO4U1SeLpZb-51" value="w/o DCL" style="text;whiteSpace=wrap;html=1;" parent="1" vertex="1">
          <mxGeometry x="1384.02" y="580" width="80" height="40" as="geometry" />
        </mxCell>
        <mxCell id="WjKeYcZH_bO4U1SeLpZb-52" value="&lt;font size=&quot;1&quot; face=&quot;Times New Roman&quot;&gt;&lt;b style=&quot;font-size: 18px;&quot;&gt;79 (7.1%)&lt;/b&gt;&lt;/font&gt;" style="text;html=1;align=center;verticalAlign=middle;resizable=0;points=[];autosize=1;strokeColor=none;fillColor=none;" parent="1" vertex="1">
          <mxGeometry x="195" y="600" width="100" height="40" as="geometry" />
        </mxCell>
        <mxCell id="WjKeYcZH_bO4U1SeLpZb-53" value="&lt;font size=&quot;1&quot; face=&quot;Times New Roman&quot;&gt;&lt;b style=&quot;font-size: 19px;&quot;&gt;63 (5.6%)&lt;/b&gt;&lt;/font&gt;" style="text;html=1;align=center;verticalAlign=middle;resizable=0;points=[];autosize=1;strokeColor=none;fillColor=none;" parent="1" vertex="1">
          <mxGeometry x="535" y="570" width="100" height="40" as="geometry" />
        </mxCell>
        <mxCell id="WjKeYcZH_bO4U1SeLpZb-54" value="&lt;font size=&quot;1&quot; face=&quot;Times New Roman&quot;&gt;&lt;b style=&quot;font-size: 18px;&quot;&gt;30 (2.7%)&lt;/b&gt;&lt;/font&gt;" style="text;html=1;align=center;verticalAlign=middle;resizable=0;points=[];autosize=1;strokeColor=none;fillColor=none;" parent="1" vertex="1">
          <mxGeometry x="266.32" y="460" width="100" height="40" as="geometry" />
        </mxCell>
        <mxCell id="WjKeYcZH_bO4U1SeLpZb-55" value="&lt;font size=&quot;1&quot; face=&quot;Times New Roman&quot;&gt;&lt;b style=&quot;font-size: 18px;&quot;&gt;46 (4.1%)&lt;/b&gt;&lt;/font&gt;" style="text;html=1;align=center;verticalAlign=middle;resizable=0;points=[];autosize=1;strokeColor=none;fillColor=none;" parent="1" vertex="1">
          <mxGeometry x="433" y="440" width="100" height="40" as="geometry" />
        </mxCell>
        <mxCell id="WjKeYcZH_bO4U1SeLpZb-56" value="&lt;font size=&quot;1&quot; face=&quot;Times New Roman&quot;&gt;&lt;b style=&quot;font-size: 17px;&quot;&gt;514 (45.6%)&lt;/b&gt;&lt;/font&gt;" style="text;html=1;align=center;verticalAlign=middle;resizable=0;points=[];autosize=1;strokeColor=none;fillColor=none;" parent="1" vertex="1">
          <mxGeometry x="367.81" y="632.5699999999999" width="110" height="30" as="geometry" />
        </mxCell>
        <mxCell id="WjKeYcZH_bO4U1SeLpZb-57" value="&lt;font size=&quot;1&quot; face=&quot;Times New Roman&quot;&gt;&lt;b style=&quot;font-size: 18px;&quot;&gt;121 (10.8%)&lt;/b&gt;&lt;/font&gt;" style="text;html=1;align=center;verticalAlign=middle;resizable=0;points=[];autosize=1;strokeColor=none;fillColor=none;" parent="1" vertex="1">
          <mxGeometry x="295" y="570" width="120" height="40" as="geometry" />
        </mxCell>
        <mxCell id="WjKeYcZH_bO4U1SeLpZb-59" value="&lt;font size=&quot;1&quot; face=&quot;Times New Roman&quot;&gt;&lt;b style=&quot;font-size: 18px;&quot;&gt;12 (1.1%)&lt;/b&gt;&lt;/font&gt;" style="text;html=1;align=center;verticalAlign=middle;resizable=0;points=[];autosize=1;strokeColor=none;fillColor=none;" parent="1" vertex="1">
          <mxGeometry x="262.81000000000006" y="650" width="100" height="40" as="geometry" />
        </mxCell>
        <mxCell id="WjKeYcZH_bO4U1SeLpZb-60" value="&lt;font size=&quot;1&quot; face=&quot;Times New Roman&quot;&gt;&lt;b style=&quot;font-size: 18px;&quot;&gt;25 (2.3%)&lt;/b&gt;&lt;/font&gt;" style="text;html=1;align=center;verticalAlign=middle;resizable=0;points=[];autosize=1;strokeColor=none;fillColor=none;" parent="1" vertex="1">
          <mxGeometry x="467.51" y="625" width="100" height="40" as="geometry" />
        </mxCell>
        <mxCell id="WjKeYcZH_bO4U1SeLpZb-61" value="&lt;font size=&quot;1&quot; face=&quot;Times New Roman&quot;&gt;&lt;b style=&quot;font-size: 18px;&quot;&gt;41 (3.7%)&lt;/b&gt;&lt;/font&gt;" style="text;html=1;align=center;verticalAlign=middle;resizable=0;points=[];autosize=1;strokeColor=none;fillColor=none;" parent="1" vertex="1">
          <mxGeometry x="362.81" y="495" width="100" height="40" as="geometry" />
        </mxCell>
        <mxCell id="WjKeYcZH_bO4U1SeLpZb-62" value="&lt;font size=&quot;1&quot; face=&quot;Times New Roman&quot;&gt;&lt;b style=&quot;font-size: 18px;&quot;&gt;21 (1.9%)&lt;/b&gt;&lt;/font&gt;" style="text;html=1;align=center;verticalAlign=middle;resizable=0;points=[];autosize=1;strokeColor=none;fillColor=none;" parent="1" vertex="1">
          <mxGeometry x="235" y="523" width="100" height="40" as="geometry" />
        </mxCell>
        <mxCell id="WjKeYcZH_bO4U1SeLpZb-63" value="&lt;font size=&quot;1&quot; face=&quot;Times New Roman&quot;&gt;&lt;b style=&quot;font-size: 18px;&quot;&gt;29 (2.6%)&lt;/b&gt;&lt;/font&gt;" style="text;html=1;align=center;verticalAlign=middle;resizable=0;points=[];autosize=1;strokeColor=none;fillColor=none;" parent="1" vertex="1">
          <mxGeometry x="477.81" y="510" width="100" height="40" as="geometry" />
        </mxCell>
        <mxCell id="WjKeYcZH_bO4U1SeLpZb-64" value="&lt;font size=&quot;1&quot; face=&quot;Times New Roman&quot;&gt;&lt;b style=&quot;font-size: 18px;&quot;&gt;47 (4.2%)&lt;/b&gt;&lt;/font&gt;" style="text;html=1;align=center;verticalAlign=middle;resizable=0;points=[];autosize=1;strokeColor=none;fillColor=none;" parent="1" vertex="1">
          <mxGeometry x="423.00000000000006" y="555" width="100" height="40" as="geometry" />
        </mxCell>
        <mxCell id="WjKeYcZH_bO4U1SeLpZb-65" value="&lt;font size=&quot;1&quot; face=&quot;Times New Roman&quot;&gt;&lt;b style=&quot;font-size: 18px;&quot;&gt;31 (2.8%)&lt;/b&gt;&lt;/font&gt;" style="text;html=1;align=center;verticalAlign=middle;resizable=0;points=[];autosize=1;strokeColor=none;fillColor=none;" parent="1" vertex="1">
          <mxGeometry x="235.00000000000006" y="827" width="100" height="40" as="geometry" />
        </mxCell>
        <mxCell id="WjKeYcZH_bO4U1SeLpZb-66" value="&lt;font size=&quot;1&quot; face=&quot;Times New Roman&quot;&gt;&lt;b style=&quot;font-size: 18px;&quot;&gt;31 (3.6%)&lt;/b&gt;&lt;/font&gt;" style="text;html=1;align=center;verticalAlign=middle;resizable=0;points=[];autosize=1;strokeColor=none;fillColor=none;" parent="1" vertex="1">
          <mxGeometry x="433" y="661.36" width="100" height="40" as="geometry" />
        </mxCell>
        <mxCell id="WjKeYcZH_bO4U1SeLpZb-67" value="" style="rhombus;whiteSpace=wrap;html=1;" parent="1" vertex="1">
          <mxGeometry x="770" y="595" width="80" height="80" as="geometry" />
        </mxCell>
        <mxCell id="WjKeYcZH_bO4U1SeLpZb-124" value="" style="rounded=0;whiteSpace=wrap;html=1;fillColor=#82B366;strokeColor=#336600;opacity=60;strokeWidth=2;" parent="1" vertex="1">
          <mxGeometry x="180" y="365" width="40" height="20" as="geometry" />
        </mxCell>
        <mxCell id="WjKeYcZH_bO4U1SeLpZb-125" value="&lt;font style=&quot;font-size: 16px;&quot; face=&quot;Times New Roman&quot;&gt;&lt;b&gt;DVCL&lt;/b&gt;&lt;/font&gt;" style="text;html=1;align=center;verticalAlign=middle;resizable=0;points=[];autosize=1;strokeColor=none;fillColor=none;" parent="1" vertex="1">
          <mxGeometry x="220" y="360" width="70" height="30" as="geometry" />
        </mxCell>
        <mxCell id="WjKeYcZH_bO4U1SeLpZb-126" value="" style="rounded=0;whiteSpace=wrap;html=1;fillColor=#9497C5;strokeColor=#A680B8;opacity=80;strokeWidth=2;" parent="1" vertex="1">
          <mxGeometry x="300" y="365" width="40" height="20" as="geometry" />
        </mxCell>
        <mxCell id="WjKeYcZH_bO4U1SeLpZb-127" value="&lt;font face=&quot;Times New Roman&quot;&gt;&lt;span style=&quot;font-size: 16px;&quot;&gt;&lt;b&gt;w/o DV&lt;/b&gt;&lt;/span&gt;&lt;/font&gt;" style="text;html=1;align=center;verticalAlign=middle;resizable=0;points=[];autosize=1;strokeColor=none;fillColor=none;" parent="1" vertex="1">
          <mxGeometry x="340" y="360" width="70" height="30" as="geometry" />
        </mxCell>
        <mxCell id="WjKeYcZH_bO4U1SeLpZb-128" value="" style="rounded=0;whiteSpace=wrap;html=1;fillColor=#FFD966;strokeColor=#FFB366;opacity=70;strokeWidth=2;" parent="1" vertex="1">
          <mxGeometry x="430" y="365" width="40" height="20" as="geometry" />
        </mxCell>
        <mxCell id="WjKeYcZH_bO4U1SeLpZb-129" value="&lt;font face=&quot;Times New Roman&quot;&gt;&lt;span style=&quot;font-size: 16px;&quot;&gt;&lt;b&gt;w/o DT&lt;/b&gt;&lt;/span&gt;&lt;/font&gt;" style="text;html=1;align=center;verticalAlign=middle;resizable=0;points=[];autosize=1;strokeColor=none;fillColor=none;" parent="1" vertex="1">
          <mxGeometry x="468" y="360" width="70" height="30" as="geometry" />
        </mxCell>
        <mxCell id="9sdCq0_GtWGFNs0LASUp-3" value="" style="ellipse;whiteSpace=wrap;html=1;rotation=90;fillColor=#FFD966;strokeColor=#FFB366;opacity=60;strokeWidth=2;" parent="1" vertex="1">
          <mxGeometry x="1443.92" y="1030" width="236.08" height="174.82" as="geometry" />
        </mxCell>
        <mxCell id="9sdCq0_GtWGFNs0LASUp-5" value="" style="ellipse;whiteSpace=wrap;html=1;rotation=-235;fillColor=#FFD966;strokeColor=#FFB366;opacity=60;strokeWidth=2;" parent="1" vertex="1">
          <mxGeometry x="1490" y="503.88" width="322.51" height="214.46" as="geometry" />
        </mxCell>
        <mxCell id="9sdCq0_GtWGFNs0LASUp-6" value="" style="ellipse;whiteSpace=wrap;html=1;rotation=-210;fillColor=#CC6E0E;strokeColor=#FFB366;opacity=60;strokeWidth=2;" parent="1" vertex="1">
          <mxGeometry x="1086.48" y="1343.76" width="212.47" height="210.38" as="geometry" />
        </mxCell>
        <mxCell id="9sdCq0_GtWGFNs0LASUp-10" value="" style="rounded=0;whiteSpace=wrap;html=1;fillColor=#9497C5;strokeColor=#A680B8;opacity=80;strokeWidth=2;" parent="1" vertex="1">
          <mxGeometry x="1300" y="670" width="40" height="20" as="geometry" />
        </mxCell>
        <mxCell id="9sdCq0_GtWGFNs0LASUp-14" value="&lt;font size=&quot;1&quot; face=&quot;Times New Roman&quot;&gt;&lt;b style=&quot;font-size: 18px;&quot;&gt;14.1%&lt;/b&gt;&lt;/font&gt;" style="text;html=1;align=center;verticalAlign=middle;resizable=0;points=[];autosize=1;strokeColor=none;fillColor=none;" parent="1" vertex="1">
          <mxGeometry x="800" y="860" width="70" height="40" as="geometry" />
        </mxCell>
        <mxCell id="9sdCq0_GtWGFNs0LASUp-15" value="" style="group" parent="1" vertex="1" connectable="0">
          <mxGeometry x="1119.9999999999998" y="810" width="410.0000000000002" height="30" as="geometry" />
        </mxCell>
        <mxCell id="WjKeYcZH_bO4U1SeLpZb-130" value="" style="rounded=0;whiteSpace=wrap;html=1;fillColor=#CC6E0E;strokeColor=#CC6E0E;opacity=50;strokeWidth=2;" parent="9sdCq0_GtWGFNs0LASUp-15" vertex="1">
          <mxGeometry x="296.2500000000002" y="5" width="40" height="20" as="geometry" />
        </mxCell>
        <mxCell id="WjKeYcZH_bO4U1SeLpZb-131" value="&lt;font face=&quot;Times New Roman&quot;&gt;&lt;span style=&quot;font-size: 16px;&quot;&gt;&lt;b&gt;w/o DT&lt;/b&gt;&lt;/span&gt;&lt;/font&gt;" style="text;html=1;align=center;verticalAlign=middle;resizable=0;points=[];autosize=1;strokeColor=none;fillColor=none;" parent="9sdCq0_GtWGFNs0LASUp-15" vertex="1">
          <mxGeometry x="340.0000000000002" width="70" height="30" as="geometry" />
        </mxCell>
        <mxCell id="9sdCq0_GtWGFNs0LASUp-8" value="" style="rounded=0;whiteSpace=wrap;html=1;fillColor=#82B366;strokeColor=#336600;opacity=60;strokeWidth=2;" parent="9sdCq0_GtWGFNs0LASUp-15" vertex="1">
          <mxGeometry y="5" width="40" height="20" as="geometry" />
        </mxCell>
        <mxCell id="9sdCq0_GtWGFNs0LASUp-9" value="&lt;font face=&quot;Times New Roman&quot;&gt;&lt;span style=&quot;font-size: 16px;&quot;&gt;&lt;b&gt;PDADT&lt;/b&gt;&lt;/span&gt;&lt;/font&gt;" style="text;html=1;align=center;verticalAlign=middle;resizable=0;points=[];autosize=1;strokeColor=none;fillColor=none;" parent="9sdCq0_GtWGFNs0LASUp-15" vertex="1">
          <mxGeometry x="40" width="80" height="30" as="geometry" />
        </mxCell>
        <mxCell id="9sdCq0_GtWGFNs0LASUp-11" value="&lt;font face=&quot;Times New Roman&quot;&gt;&lt;span style=&quot;font-size: 16px;&quot;&gt;&lt;b&gt;w/o PDA&lt;/b&gt;&lt;/span&gt;&lt;/font&gt;" style="text;html=1;align=center;verticalAlign=middle;resizable=0;points=[];autosize=1;strokeColor=none;fillColor=none;" parent="9sdCq0_GtWGFNs0LASUp-15" vertex="1">
          <mxGeometry x="187.51000000000022" width="80" height="30" as="geometry" />
        </mxCell>
        <mxCell id="9sdCq0_GtWGFNs0LASUp-12" value="" style="rounded=0;whiteSpace=wrap;html=1;fillColor=#FFD966;strokeColor=#FFB366;opacity=70;strokeWidth=2;" parent="9sdCq0_GtWGFNs0LASUp-15" vertex="1">
          <mxGeometry x="150.00000000000023" y="5" width="40" height="20" as="geometry" />
        </mxCell>
        <mxCell id="9sdCq0_GtWGFNs0LASUp-19" value="&lt;font face=&quot;Times New Roman&quot;&gt;&lt;span style=&quot;font-size: 18px;&quot;&gt;&lt;b&gt;50 (4.5%)&lt;/b&gt;&lt;/span&gt;&lt;/font&gt;" style="text;html=1;align=center;verticalAlign=middle;resizable=0;points=[];autosize=1;strokeColor=none;fillColor=none;" parent="1" vertex="1">
          <mxGeometry x="1188.8400000000001" y="1460" width="100" height="40" as="geometry" />
        </mxCell>
        <mxCell id="9sdCq0_GtWGFNs0LASUp-23" value="" style="ellipse;whiteSpace=wrap;html=1;rotation=35;fillColor=#95A54A;strokeColor=#82B366;opacity=60;strokeWidth=2;" parent="1" vertex="1">
          <mxGeometry x="1311.14" y="868.46" width="210" height="198.05" as="geometry" />
        </mxCell>
        <mxCell id="9sdCq0_GtWGFNs0LASUp-24" value="" style="ellipse;whiteSpace=wrap;html=1;rotation=-210;fillColor=#FFD966;strokeColor=#FFB366;opacity=60;strokeWidth=2;gradientColor=none;" parent="1" vertex="1">
          <mxGeometry x="1025.5322087710401" y="1270.0047122240853" width="212.47" height="210.38" as="geometry" />
        </mxCell>
        <mxCell id="9sdCq0_GtWGFNs0LASUp-4" value="" style="ellipse;whiteSpace=wrap;html=1;rotation=35;fillColor=#95A54A;strokeColor=#82B366;opacity=60;strokeWidth=2;" parent="1" vertex="1">
          <mxGeometry x="960" y="1348.06" width="210" height="202.32" as="geometry" />
        </mxCell>
        <mxCell id="9sdCq0_GtWGFNs0LASUp-25" value="" style="group" parent="1" vertex="1" connectable="0">
          <mxGeometry x="940" y="1230" width="410.0000000000002" height="30" as="geometry" />
        </mxCell>
        <mxCell id="9sdCq0_GtWGFNs0LASUp-26" value="" style="rounded=0;whiteSpace=wrap;html=1;fillColor=#CC6E0E;strokeColor=#CC6E0E;opacity=50;strokeWidth=2;" parent="9sdCq0_GtWGFNs0LASUp-25" vertex="1">
          <mxGeometry x="296.2500000000002" y="5" width="40" height="20" as="geometry" />
        </mxCell>
        <mxCell id="9sdCq0_GtWGFNs0LASUp-27" value="&lt;font face=&quot;Times New Roman&quot;&gt;&lt;span style=&quot;font-size: 16px;&quot;&gt;&lt;b&gt;w/o DT&lt;/b&gt;&lt;/span&gt;&lt;/font&gt;" style="text;html=1;align=center;verticalAlign=middle;resizable=0;points=[];autosize=1;strokeColor=none;fillColor=none;" parent="9sdCq0_GtWGFNs0LASUp-25" vertex="1">
          <mxGeometry x="340.0000000000002" width="70" height="30" as="geometry" />
        </mxCell>
        <mxCell id="9sdCq0_GtWGFNs0LASUp-28" value="" style="rounded=0;whiteSpace=wrap;html=1;fillColor=#82B366;strokeColor=#336600;opacity=60;strokeWidth=2;" parent="9sdCq0_GtWGFNs0LASUp-25" vertex="1">
          <mxGeometry y="5" width="40" height="20" as="geometry" />
        </mxCell>
        <mxCell id="9sdCq0_GtWGFNs0LASUp-29" value="&lt;font face=&quot;Times New Roman&quot;&gt;&lt;span style=&quot;font-size: 16px;&quot;&gt;&lt;b&gt;PDADT&lt;/b&gt;&lt;/span&gt;&lt;/font&gt;" style="text;html=1;align=center;verticalAlign=middle;resizable=0;points=[];autosize=1;strokeColor=none;fillColor=none;" parent="9sdCq0_GtWGFNs0LASUp-25" vertex="1">
          <mxGeometry x="40" width="80" height="30" as="geometry" />
        </mxCell>
        <mxCell id="9sdCq0_GtWGFNs0LASUp-30" value="&lt;font face=&quot;Times New Roman&quot;&gt;&lt;span style=&quot;font-size: 16px;&quot;&gt;&lt;b&gt;w/o PDA&lt;/b&gt;&lt;/span&gt;&lt;/font&gt;" style="text;html=1;align=center;verticalAlign=middle;resizable=0;points=[];autosize=1;strokeColor=none;fillColor=none;" parent="9sdCq0_GtWGFNs0LASUp-25" vertex="1">
          <mxGeometry x="187.51000000000022" width="80" height="30" as="geometry" />
        </mxCell>
        <mxCell id="9sdCq0_GtWGFNs0LASUp-31" value="" style="rounded=0;whiteSpace=wrap;html=1;fillColor=#FFD966;strokeColor=#FFB366;opacity=70;strokeWidth=2;" parent="9sdCq0_GtWGFNs0LASUp-25" vertex="1">
          <mxGeometry x="150.00000000000023" y="5" width="40" height="20" as="geometry" />
        </mxCell>
        <mxCell id="9sdCq0_GtWGFNs0LASUp-18" value="&lt;font face=&quot;Times New Roman&quot;&gt;&lt;span style=&quot;font-size: 18px;&quot;&gt;&lt;b&gt;69 (6.2%)&lt;/b&gt;&lt;/span&gt;&lt;/font&gt;" style="text;html=1;align=center;verticalAlign=middle;resizable=0;points=[];autosize=1;strokeColor=none;fillColor=none;" parent="1" vertex="1">
          <mxGeometry x="1081.77" y="1297.56" width="100" height="40" as="geometry" />
        </mxCell>
        <mxCell id="9sdCq0_GtWGFNs0LASUp-16" value="&lt;font face=&quot;Times New Roman&quot;&gt;&lt;span style=&quot;font-size: 18px;&quot;&gt;&lt;b&gt;137 (12.2%)&lt;/b&gt;&lt;/span&gt;&lt;/font&gt;" style="text;html=1;align=center;verticalAlign=middle;resizable=0;points=[];autosize=1;strokeColor=none;fillColor=none;" parent="1" vertex="1">
          <mxGeometry x="1005" y="1355.19" width="120" height="40" as="geometry" />
        </mxCell>
        <mxCell id="WjKeYcZH_bO4U1SeLpZb-58" value="&lt;font face=&quot;Times New Roman&quot;&gt;&lt;span style=&quot;font-size: 18px;&quot;&gt;&lt;b&gt;310 (27.5%)&lt;/b&gt;&lt;/span&gt;&lt;/font&gt;" style="text;html=1;align=center;verticalAlign=middle;resizable=0;points=[];autosize=1;strokeColor=none;fillColor=none;" parent="1" vertex="1">
          <mxGeometry x="1071.77" y="1410.0000000000002" width="120" height="40" as="geometry" />
        </mxCell>
        <mxCell id="9sdCq0_GtWGFNs0LASUp-21" value="&lt;font face=&quot;Times New Roman&quot;&gt;&lt;span style=&quot;font-size: 18px;&quot;&gt;&lt;b&gt;87 (7.8%)&lt;/b&gt;&lt;/span&gt;&lt;/font&gt;" style="text;html=1;align=center;verticalAlign=middle;resizable=0;points=[];autosize=1;strokeColor=none;fillColor=none;" parent="1" vertex="1">
          <mxGeometry x="1142.71" y="1355.19" width="100" height="40" as="geometry" />
        </mxCell>
        <mxCell id="9sdCq0_GtWGFNs0LASUp-20" value="&lt;font face=&quot;Times New Roman&quot;&gt;&lt;span style=&quot;font-size: 18px;&quot;&gt;&lt;b&gt;91 (8.1%)&lt;/b&gt;&lt;/span&gt;&lt;/font&gt;" style="text;html=1;align=center;verticalAlign=middle;resizable=0;points=[];autosize=1;strokeColor=none;fillColor=none;" parent="1" vertex="1">
          <mxGeometry x="1081.77" y="1479.9999999999998" width="100" height="40" as="geometry" />
        </mxCell>
        <mxCell id="9sdCq0_GtWGFNs0LASUp-17" value="&lt;font face=&quot;Times New Roman&quot;&gt;&lt;span style=&quot;font-size: 18px;&quot;&gt;&lt;b&gt;109 (9.7%)&lt;/b&gt;&lt;/span&gt;&lt;/font&gt;" style="text;html=1;align=center;verticalAlign=middle;resizable=0;points=[];autosize=1;strokeColor=none;fillColor=none;" parent="1" vertex="1">
          <mxGeometry x="965" y="1460" width="110" height="40" as="geometry" />
        </mxCell>
      </root>
    </mxGraphModel>
  </diagram>
</mxfile>
